<?xml version="1.0" standalone="no"?>
<!DOCTYPE svg PUBLIC "-//W3C//DTD SVG 1.1//EN" "http://www.w3.org/Graphics/SVG/1.1/DTD/svg11.dtd">
<svg version="1.1" xmlns="http://www.w3.org/2000/svg" viewBox="0 0 1020 767" width="2040" height="1534"><!-- svg-source:excalidraw --><metadata></metadata><defs><style class="style-fonts">
      @font-face { font-family: Cascadia; src: url(https://esm.sh/@excalidraw/excalidraw/dist/prod/fonts/CascadiaCode/CascadiaCode-Regular.woff2); }</style></defs><rect x="0" y="0" width="1020" height="767" fill="#ffffff"></rect><g transform="translate(201.14453125000006 10) rotate(0 276.85546875 21.874999999999993)"><text x="276.85546875" y="34.008789062499986" font-family="Cascadia, monospace, Segoe UI Emoji" font-size="34.999999999999986px" fill="#1e40af" text-anchor="middle" style="white-space: pre;" direction="ltr" dominant-baseline="alphabetic">LOCAL-DOCUMENT-RAG-PIPELINE</text></g><g transform="translate(17.5703125 72) rotate(0 490.4296875 11.25)"><text x="490.4296875" y="17.490234375000004" font-family="Cascadia, monospace, Segoe UI Emoji" font-size="18.000000000000004px" fill="#64748b" text-anchor="middle" style="white-space: pre;" direction="ltr" dominant-baseline="alphabetic">Token-aware chunking • SHA256 deduplication • Context budget enforcement • Offline embeddings</text></g><g transform="translate(49.9921875 119) rotate(0 74.8828125 8.875)"><text x="74.8828125" y="13.7978515625" font-family="Cascadia, monospace, Segoe UI Emoji" font-size="14.200000000000001px" fill="#3b82f6" text-anchor="middle" style="white-space: pre;" direction="ltr" dominant-baseline="alphabetic">INGESTION PIPELINE</text></g><g transform="translate(837.0703125 119) rotate(0 61.5234375 9.375)"><text x="61.5234375" y="14.575195312500005" font-family="Cascadia, monospace, Segoe UI Emoji" font-size="15.000000000000005px" fill="#3b82f6" text-anchor="middle" style="white-space: pre;" direction="ltr" dominant-baseline="alphabetic">QUERY PIPELINE</text></g><g stroke-linecap="round" transform="translate(10 152) rotate(0 110 32.5)"><path d="M16.25 0 C74.32 0, 132.38 0, 203.75 0 C214.58 0, 220 5.42, 220 16.25 C220 24.13, 220 32.01, 220 48.75 C220 59.58, 214.58 65, 203.75 65 C133.44 65, 63.13 65, 16.25 65 C5.42 65, 0 59.58, 0 48.75 C0 40.48, 0 32.22, 0 16.25 C0 5.42, 5.42 0, 16.25 0" stroke="none" stroke-width="0" fill="#fed7aa"></path><path d="M16.25 0 C70.61 0, 124.97 0, 203.75 0 M16.25 0 C81.56 0, 146.87 0, 203.75 0 M203.75 0 C214.58 0, 220 5.42, 220 16.25 M203.75 0 C214.58 0, 220 5.42, 220 16.25 M220 16.25 C220 24.82, 220 33.39, 220 48.75 M220 16.25 C220 23.73, 220 31.21, 220 48.75 M220 48.75 C220 59.58, 214.58 65, 203.75 65 M220 48.75 C220 59.58, 214.58 65, 203.75 65 M203.75 65 C154.02 65, 104.3 65, 16.25 65 M203.75 65 C162.04 65, 120.34 65, 16.25 65 M16.25 65 C5.42 65, 0 59.58, 0 48.75 M16.25 65 C5.42 65, 0 59.58, 0 48.75 M0 48.75 C0 39.87, 0 30.99, 0 16.25 M0 48.75 C0 41.93, 0 35.11, 0 16.25 M0 16.25 C0 5.42, 5.42 0, 16.25 0 M0 16.25 C0 5.42, 5.42 0, 16.25 0" stroke="#c2410c" stroke-width="2" fill="none"></path></g><g transform="translate(40.01953125 168.25) rotate(0 79.98046875 16.25)"><text x="79.98046875" y="12.6318359375" font-family="Cascadia, monospace, Segoe UI Emoji" font-size="13px" fill="#374151" text-anchor="middle" style="white-space: pre;" direction="ltr" dominant-baseline="alphabetic">Documents</text><text x="79.98046875" y="28.8818359375" font-family="Cascadia, monospace, Segoe UI Emoji" font-size="13px" fill="#374151" text-anchor="middle" style="white-space: pre;" direction="ltr" dominant-baseline="alphabetic">TXT • PDF • DOCX • MD</text></g><g stroke-linecap="round" transform="translate(10 242) rotate(0 110 32.5)"><path d="M16.25 0 C89.3 0, 162.36 0, 203.75 0 C214.58 0, 220 5.42, 220 16.25 C220 27.43, 220 38.61, 220 48.75 C220 59.58, 214.58 65, 203.75 65 C144.37 65, 85 65, 16.25 65 C5.42 65, 0 59.58, 0 48.75 C0 41.36, 0 33.97, 0 16.25 C0 5.42, 5.42 0, 16.25 0" stroke="none" stroke-width="0" fill="#93c5fd"></path><path d="M16.25 0 C70.61 0, 124.98 0, 203.75 0 M16.25 0 C60.55 0, 104.86 0, 203.75 0 M203.75 0 C214.58 0, 220 5.42, 220 16.25 M203.75 0 C214.58 0, 220 5.42, 220 16.25 M220 16.25 C220 27.09, 220 37.94, 220 48.75 M220 16.25 C220 28.87, 220 41.49, 220 48.75 M220 48.75 C220 59.58, 214.58 65, 203.75 65 M220 48.75 C220 59.58, 214.58 65, 203.75 65 M203.75 65 C142.27 65, 80.79 65, 16.25 65 M203.75 65 C150.18 65, 96.61 65, 16.25 65 M16.25 65 C5.42 65, 0 59.58, 0 48.75 M16.25 65 C5.42 65, 0 59.58, 0 48.75 M0 48.75 C0 41.59, 0 34.42, 0 16.25 M0 48.75 C0 38.5, 0 28.25, 0 16.25 M0 16.25 C0 5.42, 5.42 0, 16.25 0 M0 16.25 C0 5.42, 5.42 0, 16.25 0" stroke="#1e3a5f" stroke-width="2" fill="none"></path></g><g transform="translate(24.78515625 258.25) rotate(0 95.21484375 16.25)"><text x="95.21484375" y="12.6318359375" font-family="Cascadia, monospace, Segoe UI Emoji" font-size="13px" fill="#374151" text-anchor="middle" style="white-space: pre;" direction="ltr" dominant-baseline="alphabetic">File Parser</text><text x="95.21484375" y="28.8818359375" font-family="Cascadia, monospace, Segoe UI Emoji" font-size="13px" fill="#374151" text-anchor="middle" style="white-space: pre;" direction="ltr" dominant-baseline="alphabetic">pymupdf • docx • markdown</text></g><g stroke-linecap="round" transform="translate(10 332) rotate(0 110 32.5)"><path d="M16.25 0 C66.79 0, 117.34 0, 203.75 0 C214.58 0, 220 5.42, 220 16.25 C220 24.22, 220 32.2, 220 48.75 C220 59.58, 214.58 65, 203.75 65 C155.31 65, 106.87 65, 16.25 65 C5.42 65, 0 59.58, 0 48.75 C0 42.24, 0 35.73, 0 16.25 C0 5.42, 5.42 0, 16.25 0" stroke="none" stroke-width="0" fill="#93c5fd"></path><path d="M16.25 0 C70.62 0, 124.98 0, 203.75 0 M16.25 0 C77.05 0, 137.85 0, 203.75 0 M203.75 0 C214.58 0, 220 5.42, 220 16.25 M203.75 0 C214.58 0, 220 5.42, 220 16.25 M220 16.25 C220 22.87, 220 29.49, 220 48.75 M220 16.25 C220 27.51, 220 38.76, 220 48.75 M220 48.75 C220 59.58, 214.58 65, 203.75 65 M220 48.75 C220 59.58, 214.58 65, 203.75 65 M203.75 65 C130.52 65, 57.28 65, 16.25 65 M203.75 65 C138.31 65, 72.88 65, 16.25 65 M16.25 65 C5.42 65, 0 59.58, 0 48.75 M16.25 65 C5.42 65, 0 59.58, 0 48.75 M0 48.75 C0 36.8, 0 24.85, 0 16.25 M0 48.75 C0 41.56, 0 34.38, 0 16.25 M0 16.25 C0 5.42, 5.42 0, 16.25 0 M0 16.25 C0 5.42, 5.42 0, 16.25 0" stroke="#1e3a5f" stroke-width="2" fill="none"></path></g><g transform="translate(20 347) rotate(0 100 17.5)"><text x="100" y="12.6318359375" font-family="Cascadia, monospace, Segoe UI Emoji" font-size="13px" fill="#374151" text-anchor="middle" style="white-space: pre;" direction="ltr" dominant-baseline="alphabetic">Hash Check</text><text x="100" y="28.8818359375" font-family="Cascadia, monospace, Segoe UI Emoji" font-size="13px" fill="#374151" text-anchor="middle" style="white-space: pre;" direction="ltr" dominant-baseline="alphabetic">SHA256 deduplication</text></g><g stroke-linecap="round" transform="translate(10 422) rotate(0 110 32.5)"><path d="M16.25 0 C81.78 0, 147.31 0, 203.75 0 C214.58 0, 220 5.42, 220 16.25 C220 27.52, 220 38.79, 220 48.75 C220 59.58, 214.58 65, 203.75 65 C166.24 65, 128.73 65, 16.25 65 C5.42 65, 0 59.58, 0 48.75 C0 36.62, 0 24.49, 0 16.25 C0 5.42, 5.42 0, 16.25 0" stroke="none" stroke-width="0" fill="#93c5fd"></path><path d="M16.25 0 C70.62 0, 124.99 0, 203.75 0 M16.25 0 C56.04 0, 95.84 0, 203.75 0 M203.75 0 C214.58 0, 220 5.42, 220 16.25 M203.75 0 C214.58 0, 220 5.42, 220 16.25 M220 16.25 C220 25.14, 220 34.04, 220 48.75 M220 16.25 C220 26.14, 220 36.04, 220 48.75 M220 48.75 C220 59.58, 214.58 65, 203.75 65 M220 48.75 C220 59.58, 214.58 65, 203.75 65 M203.75 65 C156.26 65, 108.77 65, 16.25 65 M203.75 65 C163.95 65, 124.15 65, 16.25 65 M16.25 65 C5.42 65, 0 59.58, 0 48.75 M16.25 65 C5.42 65, 0 59.58, 0 48.75 M0 48.75 C0 38.52, 0 28.28, 0 16.25 M0 48.75 C0 38.13, 0 27.51, 0 16.25 M0 16.25 C0 5.42, 5.42 0, 16.25 0 M0 16.25 C0 5.42, 5.42 0, 16.25 0" stroke="#1e3a5f" stroke-width="2" fill="none"></path></g><g transform="translate(20 437) rotate(0 100 17.5)"><text x="100" y="12.6318359375" font-family="Cascadia, monospace, Segoe UI Emoji" font-size="13px" fill="#374151" text-anchor="middle" style="white-space: pre;" direction="ltr" dominant-baseline="alphabetic">Token-Aware Chunker</text><text x="100" y="28.8818359375" font-family="Cascadia, monospace, Segoe UI Emoji" font-size="13px" fill="#374151" text-anchor="middle" style="white-space: pre;" direction="ltr" dominant-baseline="alphabetic">tiktoken + RecursiveTextSplitter</text></g><g stroke-linecap="round" transform="translate(10 512) rotate(0 110 32.5)"><path d="M16.25 0 C59.27 0, 102.29 0, 203.75 0 C214.58 0, 220 5.42, 220 16.25 C220 24.32, 220 32.38, 220 48.75 C220 59.58, 214.58 65, 203.75 65 C139.68 65, 75.6 65, 16.25 65 C5.42 65, 0 59.58, 0 48.75 C0 37.5, 0 26.25, 0 16.25 C0 5.42, 5.42 0, 16.25 0" stroke="none" stroke-width="0" fill="#93c5fd"></path><path d="M16.25 0 C70.62 0, 125 0, 203.75 0 M16.25 0 C72.54 0, 128.83 0, 203.75 0 M203.75 0 C214.58 0, 220 5.42, 220 16.25 M203.75 0 C214.58 0, 220 5.42, 220 16.25 M220 16.25 C220 27.42, 220 38.59, 220 48.75 M220 16.25 C220 24.78, 220 33.31, 220 48.75 M220 48.75 C220 59.58, 214.58 65, 203.75 65 M220 48.75 C220 59.58, 214.58 65, 203.75 65 M203.75 65 C144.51 65, 85.26 65, 16.25 65 M203.75 65 C152.08 65, 100.42 65, 16.25 65 M16.25 65 C5.42 65, 0 59.58, 0 48.75 M16.25 65 C5.42 65, 0 59.58, 0 48.75 M0 48.75 C0 40.23, 0 31.71, 0 16.25 M0 48.75 C0 41.2, 0 33.64, 0 16.25 M0 16.25 C0 5.42, 5.42 0, 16.25 0 M0 16.25 C0 5.42, 5.42 0, 16.25 0" stroke="#1e3a5f" stroke-width="2" fill="none"></path></g><g transform="translate(20 527) rotate(0 100 17.5)"><text x="100" y="12.6318359375" font-family="Cascadia, monospace, Segoe UI Emoji" font-size="13px" fill="#374151" text-anchor="middle" style="white-space: pre;" direction="ltr" dominant-baseline="alphabetic">Local Embedder</text><text x="100" y="28.8818359375" font-family="Cascadia, monospace, Segoe UI Emoji" font-size="13px" fill="#374151" text-anchor="middle" style="white-space: pre;" direction="ltr" dominant-baseline="alphabetic">all-MiniLM-L6-v2  (384-dim)</text></g><g stroke-linecap="round" transform="translate(390 497) rotate(0 110 40)"><path d="M20 0 C83.82 0, 147.63 0, 200 0 C213.33 0, 220 6.67, 220 20 C220 28.04, 220 36.09, 220 60 C220 73.33, 213.33 80, 200 80 C128.94 80, 57.89 80, 20 80 C6.67 80, 0 73.33, 0 60 C0 49.6, 0 39.21, 0 20 C0 6.67, 6.67 0, 20 0" stroke="none" stroke-width="0" fill="#3b82f6"></path><path d="M20 0 C80.28 0, 140.55 0, 200 0 M20 0 C71.57 0, 123.13 0, 200 0 M200 0 C213.33 0, 220 6.67, 220 20 M200 0 C213.33 0, 220 6.67, 220 20 M220 20 C220 31.47, 220 42.94, 220 60 M220 20 C220 30.02, 220 40.04, 220 60 M220 60 C220 73.33, 213.33 80, 200 80 M220 60 C220 73.33, 213.33 80, 200 80 M200 80 C129.81 80, 59.61 80, 20 80 M200 80 C159.37 80, 118.74 80, 20 80 M20 80 C6.67 80, 0 73.33, 0 60 M20 80 C6.67 80, 0 73.33, 0 60 M0 60 C0 45.35, 0 30.69, 0 20 M0 60 C0 44.94, 0 29.88, 0 20 M0 20 C0 6.67, 6.67 0, 20 0 M0 20 C0 6.67, 6.67 0, 20 0" stroke="#1e3a5f" stroke-width="3" fill="none"></path></g><g transform="translate(443.75 517) rotate(0 56.25 20)"><text x="56.25" y="15.546875" font-family="Cascadia, monospace, Segoe UI Emoji" font-size="16px" fill="#ffffff" text-anchor="middle" style="white-space: pre;" direction="ltr" dominant-baseline="alphabetic">LanceDB</text><text x="56.25" y="35.546875" font-family="Cascadia, monospace, Segoe UI Emoji" font-size="16px" fill="#ffffff" text-anchor="middle" style="white-space: pre;" direction="ltr" dominant-baseline="alphabetic">Vector Store</text></g><g stroke-linecap="round" transform="translate(790 152) rotate(0 110 32.5)"><path d="M16.25 0 C91.14 0, 166.02 0, 203.75 0 C214.58 0, 220 5.42, 220 16.25 C220 27.94, 220 39.63, 220 48.75 C220 59.58, 214.58 65, 203.75 65 C163.52 65, 123.3 65, 16.25 65 C5.42 65, 0 59.58, 0 48.75 C0 40.12, 0 31.49, 0 16.25 C0 5.42, 5.42 0, 16.25 0" stroke="none" stroke-width="0" fill="#fed7aa"></path><path d="M16.25 0 C87.47 0, 158.69 0, 203.75 0 M16.25 0 C58.37 0, 100.49 0, 203.75 0 M203.75 0 C214.58 0, 220 5.42, 220 16.25 M203.75 0 C214.58 0, 220 5.42, 220 16.25 M220 16.25 C220 26.32, 220 36.38, 220 48.75 M220 16.25 C220 25.05, 220 33.85, 220 48.75 M220 48.75 C220 59.58, 214.58 65, 203.75 65 M220 48.75 C220 59.58, 214.58 65, 203.75 65 M203.75 65 C144.74 65, 85.73 65, 16.25 65 M203.75 65 C160.81 65, 117.86 65, 16.25 65 M16.25 65 C5.42 65, 0 59.58, 0 48.75 M16.25 65 C5.42 65, 0 59.58, 0 48.75 M0 48.75 C0 40.32, 0 31.88, 0 16.25 M0 48.75 C0 37.6, 0 26.45, 0 16.25 M0 16.25 C0 5.42, 5.42 0, 16.25 0 M0 16.25 C0 5.42, 5.42 0, 16.25 0" stroke="#c2410c" stroke-width="2" fill="none"></path></g><g transform="translate(800 176) rotate(0 100 9)"><text x="100" y="13.603515625" font-family="Cascadia, monospace, Segoe UI Emoji" font-size="14px" fill="#374151" text-anchor="middle" style="white-space: pre;" direction="ltr" dominant-baseline="alphabetic">User Query</text></g><g stroke-linecap="round" transform="translate(790 242) rotate(0 110 32.5)"><path d="M16.25 0 C68.62 0, 121 0, 203.75 0 C214.58 0, 220 5.42, 220 16.25 C220 24.74, 220 33.22, 220 48.75 C220 59.58, 214.58 65, 203.75 65 C136.96 65, 70.17 65, 16.25 65 C5.42 65, 0 59.58, 0 48.75 C0 41, 0 33.25, 0 16.25 C0 5.42, 5.42 0, 16.25 0" stroke="none" stroke-width="0" fill="#93c5fd"></path><path d="M16.25 0 C87.47 0, 158.69 0, 203.75 0 M16.25 0 C74.86 0, 133.48 0, 203.75 0 M203.75 0 C214.58 0, 220 5.42, 220 16.25 M203.75 0 C214.58 0, 220 5.42, 220 16.25 M220 16.25 C220 28.59, 220 40.93, 220 48.75 M220 16.25 C220 23.69, 220 31.13, 220 48.75 M220 48.75 C220 59.58, 214.58 65, 203.75 65 M220 48.75 C220 59.58, 214.58 65, 203.75 65 M203.75 65 C132.98 65, 62.22 65, 16.25 65 M203.75 65 C148.94 65, 94.13 65, 16.25 65 M16.25 65 C5.42 65, 0 59.58, 0 48.75 M16.25 65 C5.42 65, 0 59.58, 0 48.75 M0 48.75 C0 42.03, 0 35.31, 0 16.25 M0 48.75 C0 40.66, 0 32.58, 0 16.25 M0 16.25 C0 5.42, 5.42 0, 16.25 0 M0 16.25 C0 5.42, 5.42 0, 16.25 0" stroke="#1e3a5f" stroke-width="2" fill="none"></path></g><g transform="translate(800.9765625 258.25) rotate(0 99.0234375 16.25)"><text x="99.0234375" y="12.6318359375" font-family="Cascadia, monospace, Segoe UI Emoji" font-size="13px" fill="#374151" text-anchor="middle" style="white-space: pre;" direction="ltr" dominant-baseline="alphabetic">Embed Query</text><text x="99.0234375" y="28.8818359375" font-family="Cascadia, monospace, Segoe UI Emoji" font-size="13px" fill="#374151" text-anchor="middle" style="white-space: pre;" direction="ltr" dominant-baseline="alphabetic">all-MiniLM-L6-v2 (384-dim)</text></g><g stroke-linecap="round" transform="translate(790 332) rotate(0 110 32.5)"><path d="M16.25 0 C83.61 0, 150.97 0, 203.75 0 C214.58 0, 220 5.42, 220 16.25 C220 28.03, 220 39.81, 220 48.75 C220 59.58, 214.58 65, 203.75 65 C147.89 65, 92.03 65, 16.25 65 C5.42 65, 0 59.58, 0 48.75 C0 41.88, 0 35.01, 0 16.25 C0 5.42, 5.42 0, 16.25 0" stroke="none" stroke-width="0" fill="#93c5fd"></path><path d="M16.25 0 C87.47 0, 158.7 0, 203.75 0 M16.25 0 C53.86 0, 91.47 0, 203.75 0 M203.75 0 C214.58 0, 220 5.42, 220 16.25 M203.75 0 C214.58 0, 220 5.42, 220 16.25 M220 16.25 C220 24.37, 220 32.49, 220 48.75 M220 16.25 C220 28.83, 220 41.4, 220 48.75 M220 48.75 C220 59.58, 214.58 65, 203.75 65 M220 48.75 C220 59.58, 214.58 65, 203.75 65 M203.75 65 C158.73 65, 113.71 65, 16.25 65 M203.75 65 C137.07 65, 70.4 65, 16.25 65 M16.25 65 C5.42 65, 0 59.58, 0 48.75 M16.25 65 C5.42 65, 0 59.58, 0 48.75 M0 48.75 C0 37.25, 0 25.74, 0 16.25 M0 48.75 C0 37.23, 0 25.71, 0 16.25 M0 16.25 C0 5.42, 5.42 0, 16.25 0 M0 16.25 C0 5.42, 5.42 0, 16.25 0" stroke="#1e3a5f" stroke-width="2" fill="none"></path></g><g transform="translate(800 347) rotate(0 100 17.5)"><text x="100" y="12.6318359375" font-family="Cascadia, monospace, Segoe UI Emoji" font-size="13px" fill="#374151" text-anchor="middle" style="white-space: pre;" direction="ltr" dominant-baseline="alphabetic">Cosine Similarity Search</text><text x="100" y="28.8818359375" font-family="Cascadia, monospace, Segoe UI Emoji" font-size="13px" fill="#374151" text-anchor="middle" style="white-space: pre;" direction="ltr" dominant-baseline="alphabetic">top-k = 5 chunks</text></g><g stroke-linecap="round" transform="translate(790 422) rotate(0 110 32.5)"><path d="M16.25 0 C61.1 0, 105.95 0, 203.75 0 C214.58 0, 220 5.42, 220 16.25 C220 24.83, 220 33.41, 220 48.75 C220 59.58, 214.58 65, 203.75 65 C158.83 65, 113.9 65, 16.25 65 C5.42 65, 0 59.58, 0 48.75 C0 36.26, 0 23.77, 0 16.25 C0 5.42, 5.42 0, 16.25 0" stroke="none" stroke-width="0" fill="#93c5fd"></path><path d="M16.25 0 C87.48 0, 158.71 0, 203.75 0 M16.25 0 C70.35 0, 124.46 0, 203.75 0 M203.75 0 C214.58 0, 220 5.42, 220 16.25 M203.75 0 C214.58 0, 220 5.42, 220 16.25 M220 16.25 C220 26.64, 220 37.04, 220 48.75 M220 16.25 C220 27.46, 220 38.68, 220 48.75 M220 48.75 C220 59.58, 214.58 65, 203.75 65 M220 48.75 C220 59.58, 214.58 65, 203.75 65 M203.75 65 C146.97 65, 90.2 65, 16.25 65 M203.75 65 C162.71 65, 121.67 65, 16.25 65 M16.25 65 C5.42 65, 0 59.58, 0 48.75 M16.25 65 C5.42 65, 0 59.58, 0 48.75 M0 48.75 C0 38.96, 0 29.17, 0 16.25 M0 48.75 C0 40.3, 0 31.84, 0 16.25 M0 16.25 C0 5.42, 5.42 0, 16.25 0 M0 16.25 C0 5.42, 5.42 0, 16.25 0" stroke="#1e3a5f" stroke-width="2" fill="none"></path></g><g transform="translate(800 437) rotate(0 100 17.5)"><text x="100" y="12.6318359375" font-family="Cascadia, monospace, Segoe UI Emoji" font-size="13px" fill="#374151" text-anchor="middle" style="white-space: pre;" direction="ltr" dominant-baseline="alphabetic">Context Budget Fitter</text><text x="100" y="28.8818359375" font-family="Cascadia, monospace, Segoe UI Emoji" font-size="13px" fill="#374151" text-anchor="middle" style="white-space: pre;" direction="ltr" dominant-baseline="alphabetic">max 3,000 tokens enforced</text></g><g stroke-linecap="round" transform="translate(790 511) rotate(0 110 32.5)"><path d="M16.25 0 C76.09 0, 135.93 0, 203.75 0 C214.58 0, 220 5.42, 220 16.25 C220 28.12, 220 40, 220 48.75 C220 59.58, 214.58 65, 203.75 65 C132.26 65, 60.77 65, 16.25 65 C5.42 65, 0 59.58, 0 48.75 C0 37.14, 0 25.52, 0 16.25 C0 5.42, 5.42 0, 16.25 0" stroke="none" stroke-width="0" fill="#ddd6fe"></path><path d="M16.25 0 C87.48 0, 158.71 0, 203.75 0 M16.25 0 C86.85 0, 157.45 0, 203.75 0 M203.75 0 C214.58 0, 220 5.42, 220 16.25 M203.75 0 C214.58 0, 220 5.42, 220 16.25 M220 16.25 C220 28.92, 220 41.59, 220 48.75 M220 16.25 C220 26.1, 220 35.95, 220 48.75 M220 48.75 C220 59.58, 214.58 65, 203.75 65 M220 48.75 C220 59.58, 214.58 65, 203.75 65 M203.75 65 C135.22 65, 66.69 65, 16.25 65 M203.75 65 C150.84 65, 97.94 65, 16.25 65 M16.25 65 C5.42 65, 0 59.58, 0 48.75 M16.25 65 C5.42 65, 0 59.58, 0 48.75 M0 48.75 C0 40.67, 0 32.6, 0 16.25 M0 48.75 C0 36.86, 0 24.97, 0 16.25 M0 16.25 C0 5.42, 5.42 0, 16.25 0 M0 16.25 C0 5.42, 5.42 0, 16.25 0" stroke="#6d28d9" stroke-width="2" fill="none"></path></g><g transform="translate(812.40234375 527.25) rotate(0 87.59765625 16.25)"><text x="87.59765625" y="12.6318359375" font-family="Cascadia, monospace, Segoe UI Emoji" font-size="13px" fill="#374151" text-anchor="middle" style="white-space: pre;" direction="ltr" dominant-baseline="alphabetic">Prompt Builder</text><text x="87.59765625" y="28.8818359375" font-family="Cascadia, monospace, Segoe UI Emoji" font-size="13px" fill="#374151" text-anchor="middle" style="white-space: pre;" direction="ltr" dominant-baseline="alphabetic">RAG mode | Summary mode</text></g><g stroke-linecap="round" transform="translate(790 602) rotate(0 110 32.5)"><path d="M16.25 0 C91.08 0, 165.9 0, 203.75 0 C214.58 0, 220 5.42, 220 16.25 C220 24.92, 220 33.59, 220 48.75 C220 59.58, 214.58 65, 203.75 65 C143.19 65, 82.63 65, 16.25 65 C5.42 65, 0 59.58, 0 48.75 C0 38.02, 0 27.28, 0 16.25 C0 5.42, 5.42 0, 16.25 0" stroke="none" stroke-width="0" fill="#ddd6fe"></path><path d="M16.25 0 C87.48 0, 158.72 0, 203.75 0 M16.25 0 C65.85 0, 115.44 0, 203.75 0 M203.75 0 C214.58 0, 220 5.42, 220 16.25 M203.75 0 C214.58 0, 220 5.42, 220 16.25 M220 16.25 C220 24.69, 220 33.14, 220 48.75 M220 16.25 C220 24.74, 220 33.23, 220 48.75 M220 48.75 C220 59.58, 214.58 65, 203.75 65 M220 48.75 C220 59.58, 214.58 65, 203.75 65 M203.75 65 C160.97 65, 118.18 65, 16.25 65 M203.75 65 C138.98 65, 74.21 65, 16.25 65 M16.25 65 C5.42 65, 0 59.58, 0 48.75 M16.25 65 C5.42 65, 0 59.58, 0 48.75 M0 48.75 C0 35.89, 0 23.03, 0 16.25 M0 48.75 C0 39.93, 0 31.1, 0 16.25 M0 16.25 C0 5.42, 5.42 0, 16.25 0 M0 16.25 C0 5.42, 5.42 0, 16.25 0" stroke="#6d28d9" stroke-width="2" fill="none"></path></g><g transform="translate(800 617) rotate(0 100 17.5)"><text x="100" y="12.6318359375" font-family="Cascadia, monospace, Segoe UI Emoji" font-size="13px" fill="#374151" text-anchor="middle" style="white-space: pre;" direction="ltr" dominant-baseline="alphabetic">OpenRouter LLM</text><text x="100" y="28.8818359375" font-family="Cascadia, monospace, Segoe UI Emoji" font-size="13px" fill="#374151" text-anchor="middle" style="white-space: pre;" direction="ltr" dominant-baseline="alphabetic">meta-llama/llama-3.3-70b</text></g><g stroke-linecap="round" transform="translate(790 692) rotate(0 110 32.5)"><path d="M16.25 0 C68.57 0, 120.88 0, 203.75 0 C214.58 0, 220 5.42, 220 16.25 C220 28.22, 220 40.18, 220 48.75 C220 59.58, 214.58 65, 203.75 65 C154.13 65, 104.5 65, 16.25 65 C5.42 65, 0 59.58, 0 48.75 C0 38.89, 0 29.04, 0 16.25 C0 5.42, 5.42 0, 16.25 0" stroke="none" stroke-width="0" fill="#a7f3d0"></path><path d="M16.25 0 C87.49 0, 158.73 0, 203.75 0 M16.25 0 C82.34 0, 148.43 0, 203.75 0 M203.75 0 C214.58 0, 220 5.42, 220 16.25 M203.75 0 C214.58 0, 220 5.42, 220 16.25 M220 16.25 C220 26.97, 220 37.69, 220 48.75 M220 16.25 C220 23.38, 220 30.5, 220 48.75 M220 48.75 C220 59.58, 214.58 65, 203.75 65 M220 48.75 C220 59.58, 214.58 65, 203.75 65 M203.75 65 C149.21 65, 94.67 65, 16.25 65 M203.75 65 C164.61 65, 125.48 65, 16.25 65 M16.25 65 C5.42 65, 0 59.58, 0 48.75 M16.25 65 C5.42 65, 0 59.58, 0 48.75 M0 48.75 C0 37.6, 0 26.46, 0 16.25 M0 48.75 C0 36.49, 0 24.24, 0 16.25 M0 16.25 C0 5.42, 5.42 0, 16.25 0 M0 16.25 C0 5.42, 5.42 0, 16.25 0" stroke="#047857" stroke-width="2" fill="none"></path></g><g transform="translate(800 707) rotate(0 100 17.5)"><text x="100" y="12.6318359375" font-family="Cascadia, monospace, Segoe UI Emoji" font-size="13px" fill="#374151" text-anchor="middle" style="white-space: pre;" direction="ltr" dominant-baseline="alphabetic">Grounded Answer</text><text x="100" y="28.8818359375" font-family="Cascadia, monospace, Segoe UI Emoji" font-size="13px" fill="#374151" text-anchor="middle" style="white-space: pre;" direction="ltr" dominant-baseline="alphabetic">with source citations</text></g><g stroke-linecap="round"><g transform="translate(120 217) rotate(0 0 12.5)"><path d="M0 0 C0 5.62, 0 11.24, 0 25 M0 0 C0 9.07, 0 18.14, 0 25" stroke="#64748b" stroke-width="2" fill="none"></path></g><g transform="translate(120 217) rotate(0 0 12.5)"><path d="M-4.28 13.25 C-3.31 15.89, -2.35 18.53, 0 25 M-4.28 13.25 C-2.72 17.52, -1.17 21.78, 0 25" stroke="#64748b" stroke-width="2" fill="none"></path></g><g transform="translate(120 217) rotate(0 0 12.5)"><path d="M4.28 13.25 C3.31 15.89, 2.35 18.53, 0 25 M4.28 13.25 C2.72 17.52, 1.17 21.78, 0 25" stroke="#64748b" stroke-width="2" fill="none"></path></g></g><mask></mask><g stroke-linecap="round"><g transform="translate(120 307) rotate(0 0 12.5)"><path d="M0 0 C0 5.62, 0 11.24, 0 25 M0 0 C0 7.67, 0 15.34, 0 25" stroke="#64748b" stroke-width="2" fill="none"></path></g><g transform="translate(120 307) rotate(0 0 12.5)"><path d="M-4.28 13.25 C-3.31 15.89, -2.35 18.53, 0 25 M-4.28 13.25 C-2.96 16.86, -1.65 20.46, 0 25" stroke="#64748b" stroke-width="2" fill="none"></path></g><g transform="translate(120 307) rotate(0 0 12.5)"><path d="M4.28 13.25 C3.31 15.89, 2.35 18.53, 0 25 M4.28 13.25 C2.96 16.86, 1.65 20.46, 0 25" stroke="#64748b" stroke-width="2" fill="none"></path></g></g><mask></mask><g stroke-linecap="round"><g transform="translate(120 397) rotate(0 0 12.5)"><path d="M0 0 C0 5.62, 0 11.24, 0 25 M0 0 C0 6.27, 0 12.54, 0 25" stroke="#64748b" stroke-width="2" fill="none"></path></g><g transform="translate(120 397) rotate(0 0 12.5)"><path d="M-4.28 13.25 C-3.31 15.89, -2.35 18.53, 0 25 M-4.28 13.25 C-3.2 16.2, -2.13 19.14, 0 25" stroke="#64748b" stroke-width="2" fill="none"></path></g><g transform="translate(120 397) rotate(0 0 12.5)"><path d="M4.28 13.25 C3.31 15.89, 2.35 18.53, 0 25 M4.28 13.25 C3.2 16.2, 2.13 19.14, 0 25" stroke="#64748b" stroke-width="2" fill="none"></path></g></g><mask></mask><g stroke-linecap="round"><g transform="translate(120 487) rotate(0 0 12.5)"><path d="M0 0 C0 5.62, 0 11.24, 0 25 M0 0 C0 9.87, 0 19.74, 0 25" stroke="#64748b" stroke-width="2" fill="none"></path></g><g transform="translate(120 487) rotate(0 0 12.5)"><path d="M-4.28 13.25 C-3.31 15.89, -2.35 18.54, 0 25 M-4.28 13.25 C-2.59 17.89, -0.9 22.53, 0 25" stroke="#64748b" stroke-width="2" fill="none"></path></g><g transform="translate(120 487) rotate(0 0 12.5)"><path d="M4.28 13.25 C3.31 15.89, 2.35 18.54, 0 25 M4.28 13.25 C2.59 17.89, 0.9 22.53, 0 25" stroke="#64748b" stroke-width="2" fill="none"></path></g></g><mask></mask><g stroke-linecap="round"><g transform="translate(232 537) rotate(0 78 0)"><path d="M0 0 C35.07 0, 70.14 0, 156 0 M0 0 C52.84 0, 105.69 0, 156 0" stroke="#1e3a5f" stroke-width="2" fill="none"></path></g><g transform="translate(232 537) rotate(0 78 0)"><path d="M132.51 8.55 C137.79 6.63, 143.07 4.71, 156 0 M132.51 8.55 C140.47 5.65, 148.42 2.76, 156 0" stroke="#1e3a5f" stroke-width="2" fill="none"></path></g><g transform="translate(232 537) rotate(0 78 0)"><path d="M132.51 -8.55 C137.79 -6.63, 143.07 -4.71, 156 0 M132.51 -8.55 C140.47 -5.65, 148.42 -2.76, 156 0" stroke="#1e3a5f" stroke-width="2" fill="none"></path></g></g><mask></mask><g stroke-linecap="round"><g transform="translate(612 537) rotate(0 88 -86.5)"><path d="M0 0 C19.78 0, 39.57 0, 88 0 M0 0 C24.88 0, 49.76 0, 88 0 M88 0 C88 -44.75, 88 -89.49, 88 -173 M88 0 C88 -35.89, 88 -71.78, 88 -173 M88 -173 C107.53 -173, 127.07 -173, 176 -173 M88 -173 C115.44 -173, 142.88 -173, 176 -173" stroke="#1e3a5f" stroke-width="2" fill="none"></path></g><g transform="translate(612 537) rotate(0 88 -86.5)"><path d="M152.51 -164.45 C157.79 -166.37, 163.07 -168.29, 176 -173 M152.51 -164.45 C159.15 -166.87, 165.79 -169.28, 176 -173" stroke="#1e3a5f" stroke-width="2" fill="none"></path></g><g transform="translate(612 537) rotate(0 88 -86.5)"><path d="M152.51 -181.55 C157.79 -179.63, 163.07 -177.71, 176 -173 M152.51 -181.55 C159.15 -179.13, 165.79 -176.72, 176 -173" stroke="#1e3a5f" stroke-width="2" fill="none"></path></g></g><mask></mask><g stroke-linecap="round"><g transform="translate(900 217) rotate(0 0 12.5)"><path d="M0 0 C0 6.74, 0 13.49, 0 25 M0 0 C0 7.52, 0 15.05, 0 25" stroke="#64748b" stroke-width="2" fill="none"></path></g><g transform="translate(900 217) rotate(0 0 12.5)"><path d="M-4.28 13.25 C-3.12 16.42, -1.97 19.59, 0 25 M-4.28 13.25 C-2.99 16.79, -1.7 20.32, 0 25" stroke="#64748b" stroke-width="2" fill="none"></path></g><g transform="translate(900 217) rotate(0 0 12.5)"><path d="M4.28 13.25 C3.12 16.42, 1.97 19.59, 0 25 M4.28 13.25 C2.99 16.79, 1.7 20.32, 0 25" stroke="#64748b" stroke-width="2" fill="none"></path></g></g><mask></mask><g stroke-linecap="round"><g transform="translate(900 307) rotate(0 0 12.5)"><path d="M0 0 C0 6.74, 0 13.49, 0 25 M0 0 C0 6.12, 0 12.25, 0 25" stroke="#64748b" stroke-width="2" fill="none"></path></g><g transform="translate(900 307) rotate(0 0 12.5)"><path d="M-4.28 13.25 C-3.12 16.42, -1.97 19.59, 0 25 M-4.28 13.25 C-3.23 16.13, -2.18 19.01, 0 25" stroke="#64748b" stroke-width="2" fill="none"></path></g><g transform="translate(900 307) rotate(0 0 12.5)"><path d="M4.28 13.25 C3.12 16.42, 1.97 19.59, 0 25 M4.28 13.25 C3.23 16.13, 2.18 19.01, 0 25" stroke="#64748b" stroke-width="2" fill="none"></path></g></g><mask></mask><g stroke-linecap="round"><g transform="translate(900 397) rotate(0 0 12.5)"><path d="M0 0 C0 6.74, 0 13.49, 0 25 M0 0 C0 9.72, 0 19.45, 0 25" stroke="#64748b" stroke-width="2" fill="none"></path></g><g transform="translate(900 397) rotate(0 0 12.5)"><path d="M-4.28 13.25 C-3.12 16.42, -1.97 19.59, 0 25 M-4.28 13.25 C-2.61 17.82, -0.95 22.39, 0 25" stroke="#64748b" stroke-width="2" fill="none"></path></g><g transform="translate(900 397) rotate(0 0 12.5)"><path d="M4.28 13.25 C3.12 16.42, 1.97 19.59, 0 25 M4.28 13.25 C2.61 17.82, 0.95 22.39, 0 25" stroke="#64748b" stroke-width="2" fill="none"></path></g></g><mask></mask><g stroke-linecap="round"><g transform="translate(900 487) rotate(0 0 12.5)"><path d="M0 0 C0 6.74, 0 13.49, 0 25 M0 0 C0 8.32, 0 16.65, 0 25" stroke="#64748b" stroke-width="2" fill="none"></path></g><g transform="translate(900 487) rotate(0 0 12.5)"><path d="M-4.28 13.25 C-3.12 16.42, -1.97 19.59, 0 25 M-4.28 13.25 C-2.85 17.16, -1.43 21.07, 0 25" stroke="#64748b" stroke-width="2" fill="none"></path></g><g transform="translate(900 487) rotate(0 0 12.5)"><path d="M4.28 13.25 C3.12 16.42, 1.97 19.59, 0 25 M4.28 13.25 C2.85 17.16, 1.43 21.07, 0 25" stroke="#64748b" stroke-width="2" fill="none"></path></g></g><mask></mask><g stroke-linecap="round"><g transform="translate(900 577) rotate(0 0 12.5)"><path d="M0 0 C0 6.74, 0 13.49, 0 25 M0 0 C0 6.92, 0 13.85, 0 25" stroke="#64748b" stroke-width="2" fill="none"></path></g><g transform="translate(900 577) rotate(0 0 12.5)"><path d="M-4.28 13.25 C-3.12 16.42, -1.97 19.59, 0 25 M-4.28 13.25 C-3.09 16.51, -1.91 19.76, 0 25" stroke="#64748b" stroke-width="2" fill="none"></path></g><g transform="translate(900 577) rotate(0 0 12.5)"><path d="M4.28 13.25 C3.12 16.42, 1.97 19.59, 0 25 M4.28 13.25 C3.09 16.51, 1.91 19.76, 0 25" stroke="#64748b" stroke-width="2" fill="none"></path></g></g><mask></mask><g stroke-linecap="round"><g transform="translate(900 667) rotate(0 0 12.5)"><path d="M0 0 C0 6.74, 0 13.49, 0 25 M0 0 C0 5.52, 0 11.04, 0 25" stroke="#64748b" stroke-width="2" fill="none"></path></g><g transform="translate(900 667) rotate(0 0 12.5)"><path d="M-4.28 13.25 C-3.12 16.42, -1.97 19.59, 0 25 M-4.28 13.25 C-3.33 15.85, -2.39 18.44, 0 25" stroke="#64748b" stroke-width="2" fill="none"></path></g><g transform="translate(900 667) rotate(0 0 12.5)"><path d="M4.28 13.25 C3.12 16.42, 1.97 19.59, 0 25 M4.28 13.25 C3.33 15.85, 2.39 18.44, 0 25" stroke="#64748b" stroke-width="2" fill="none"></path></g></g><mask></mask><g transform="translate(255.984375 521) rotate(0 49.765625000000085 22.75)"><text x="49.76562500000008" y="11.789713541666673" font-family="Cascadia, monospace, Segoe UI Emoji" font-size="12.13333333333334px" fill="#1e3a5f" text-anchor="middle" style="white-space: pre;" direction="ltr" dominant-baseline="alphabetic">writes chunks </text><text x="49.76562500000008" y="26.95638020833335" font-family="Cascadia, monospace, Segoe UI Emoji" font-size="12.13333333333334px" fill="#1e3a5f" text-anchor="middle" style="white-space: pre;" direction="ltr" dominant-baseline="alphabetic">+ </text><text x="49.76562500000008" y="42.12304687500002" font-family="Cascadia, monospace, Segoe UI Emoji" font-size="12.13333333333334px" fill="#1e3a5f" text-anchor="middle" style="white-space: pre;" direction="ltr" dominant-baseline="alphabetic">vectors</text></g><g transform="translate(617.625 480) rotate(0 40.234375 25.75)"><text x="0" y="13.344401041666668" font-family="Cascadia, monospace, Segoe UI Emoji" font-size="13.733333333333334px" fill="#1e3a5f" text-anchor="start" style="white-space: pre;" direction="ltr" dominant-baseline="alphabetic">vector </text><text x="0" y="30.511067708333336" font-family="Cascadia, monospace, Segoe UI Emoji" font-size="13.733333333333334px" fill="#1e3a5f" text-anchor="start" style="white-space: pre;" direction="ltr" dominant-baseline="alphabetic">similarity</text><text x="0" y="47.677734375" font-family="Cascadia, monospace, Segoe UI Emoji" font-size="13.733333333333334px" fill="#1e3a5f" text-anchor="start" style="white-space: pre;" direction="ltr" dominant-baseline="alphabetic">search</text></g><g transform="translate(30 616) rotate(0 31.2744140625 9.532860824742272)"><text x="0" y="14.820619563466495" font-family="Cascadia, monospace, Segoe UI Emoji" font-size="15.25257731958763px" fill="#64748b" text-anchor="start" style="white-space: pre;" direction="ltr" dominant-baseline="alphabetic">Legend:</text></g><g stroke-linecap="round" transform="translate(30 646.5051546391753) rotate(0 9.706185567010309 9.706185567010323)"><path d="M4.85 0 C6.98 0, 9.1 0, 14.56 0 C17.79 0, 19.41 1.62, 19.41 4.85 C19.41 7.23, 19.41 9.6, 19.41 14.56 C19.41 17.79, 17.79 19.41, 14.56 19.41 C11.02 19.41, 7.48 19.41, 4.85 19.41 C1.62 19.41, 0 17.79, 0 14.56 C0 10.93, 0 7.29, 0 4.85 C0 1.62, 1.62 0, 4.85 0" stroke="none" stroke-width="0" fill="#fed7aa"></path><path d="M4.85 0 C8.34 0, 11.83 0, 14.56 0 M4.85 0 C7.97 0, 11.09 0, 14.56 0 M14.56 0 C17.79 0, 19.41 1.62, 19.41 4.85 M14.56 0 C17.79 0, 19.41 1.62, 19.41 4.85 M19.41 4.85 C19.41 7.15, 19.41 9.45, 19.41 14.56 M19.41 4.85 C19.41 8.07, 19.41 11.28, 19.41 14.56 M19.41 14.56 C19.41 17.79, 17.79 19.41, 14.56 19.41 M19.41 14.56 C19.41 17.79, 17.79 19.41, 14.56 19.41 M14.56 19.41 C12.18 19.41, 9.8 19.41, 4.85 19.41 M14.56 19.41 C11.9 19.41, 9.24 19.41, 4.85 19.41 M4.85 19.41 C1.62 19.41, 0 17.79, 0 14.56 M4.85 19.41 C1.62 19.41, 0 17.79, 0 14.56 M0 14.56 C0 12.56, 0 10.56, 0 4.85 M0 14.56 C0 11.04, 0 7.52, 0 4.85 M0 4.85 C0 1.62, 1.62 0, 4.85 0 M0 4.85 C0 1.62, 1.62 0, 4.85 0" stroke="#c2410c" stroke-width="1" fill="none"></path></g><g transform="translate(57.73195876288659 646.5051546391753) rotate(0 76.26288659793815 10.399484536082468)"><text x="0" y="13.473290512242269" font-family="Cascadia, monospace, Segoe UI Emoji" font-size="13.8659793814433px" fill="#64748b" text-anchor="start" style="white-space: pre;" direction="ltr" dominant-baseline="alphabetic">Input / Output</text></g><g stroke-linecap="round" transform="translate(30 674.2371134020618) rotate(0 9.706185567010309 9.706185567010323)"><path d="M4.85 0 C7.75 0, 10.65 0, 14.56 0 C17.79 0, 19.41 1.62, 19.41 4.85 C19.41 8.21, 19.41 11.57, 19.41 14.56 C19.41 17.79, 17.79 19.41, 14.56 19.41 C11.59 19.41, 8.62 19.41, 4.85 19.41 C1.62 19.41, 0 17.79, 0 14.56 C0 11.19, 0 7.82, 0 4.85 C0 1.62, 1.62 0, 4.85 0" stroke="none" stroke-width="0" fill="#93c5fd"></path><path d="M4.85 0 C8.34 0, 11.84 0, 14.56 0 M4.85 0 C6.88 0, 8.91 0, 14.56 0 M14.56 0 C17.79 0, 19.41 1.62, 19.41 4.85 M14.56 0 C17.79 0, 19.41 1.62, 19.41 4.85 M19.41 4.85 C19.41 7.83, 19.41 10.81, 19.41 14.56 M19.41 4.85 C19.41 7.66, 19.41 10.47, 19.41 14.56 M19.41 14.56 C19.41 17.79, 17.79 19.41, 14.56 19.41 M19.41 14.56 C19.41 17.79, 17.79 19.41, 14.56 19.41 M14.56 19.41 C11.57 19.41, 8.58 19.41, 4.85 19.41 M14.56 19.41 C11.29 19.41, 8.01 19.41, 4.85 19.41 M4.85 19.41 C1.62 19.41, 0 17.79, 0 14.56 M4.85 19.41 C1.62 19.41, 0 17.79, 0 14.56 M0 14.56 C0 11.13, 0 7.71, 0 4.85 M0 14.56 C0 11.95, 0 9.35, 0 4.85 M0 4.85 C0 1.62, 1.62 0, 4.85 0 M0 4.85 C0 1.62, 1.62 0, 4.85 0" stroke="#1e3a5f" stroke-width="1" fill="none"></path></g><g transform="translate(57.73195876288659 674.2371134020618) rotate(0 76.26288659793815 10.399484536082468)"><text x="0" y="13.473290512242269" font-family="Cascadia, monospace, Segoe UI Emoji" font-size="13.8659793814433px" fill="#64748b" text-anchor="start" style="white-space: pre;" direction="ltr" dominant-baseline="alphabetic">Processing step</text></g><g stroke-linecap="round" transform="translate(30 701.9690721649484) rotate(0 9.706185567010309 9.706185567010323)"><path d="M4.85 0 C8.53 0, 12.2 0, 14.56 0 C17.79 0, 19.41 1.62, 19.41 4.85 C19.41 7.26, 19.41 9.66, 19.41 14.56 C19.41 17.79, 17.79 19.41, 14.56 19.41 C12.15 19.41, 9.75 19.41, 4.85 19.41 C1.62 19.41, 0 17.79, 0 14.56 C0 11.45, 0 8.34, 0 4.85 C0 1.62, 1.62 0, 4.85 0" stroke="none" stroke-width="0" fill="#ddd6fe"></path><path d="M4.85 0 C8.34 0, 11.84 0, 14.56 0 M4.85 0 C7.74 0, 10.62 0, 14.56 0 M14.56 0 C17.79 0, 19.41 1.62, 19.41 4.85 M14.56 0 C17.79 0, 19.41 1.62, 19.41 4.85 M19.41 4.85 C19.41 8.51, 19.41 12.17, 19.41 14.56 M19.41 4.85 C19.41 7.25, 19.41 9.65, 19.41 14.56 M19.41 14.56 C19.41 17.79, 17.79 19.41, 14.56 19.41 M19.41 14.56 C19.41 17.79, 17.79 19.41, 14.56 19.41 M14.56 19.41 C10.96 19.41, 7.37 19.41, 4.85 19.41 M14.56 19.41 C12.61 19.41, 10.67 19.41, 4.85 19.41 M4.85 19.41 C1.62 19.41, 0 17.79, 0 14.56 M4.85 19.41 C1.62 19.41, 0 17.79, 0 14.56 M0 14.56 C0 11.64, 0 8.73, 0 4.85 M0 14.56 C0 10.93, 0 7.3, 0 4.85 M0 4.85 C0 1.62, 1.62 0, 4.85 0 M0 4.85 C0 1.62, 1.62 0, 4.85 0" stroke="#6d28d9" stroke-width="1" fill="none"></path></g><g transform="translate(57.73195876288659 701.9690721649484) rotate(0 76.26288659793815 10.399484536082468)"><text x="0" y="13.473290512242269" font-family="Cascadia, monospace, Segoe UI Emoji" font-size="13.8659793814433px" fill="#64748b" text-anchor="start" style="white-space: pre;" direction="ltr" dominant-baseline="alphabetic">AI / LLM</text></g><g stroke-linecap="round" transform="translate(30 729.7010309278351) rotate(0 9.706185567010309 9.706185567010323)"><path d="M4.85 0 C7.36 0, 9.87 0, 14.56 0 C17.79 0, 19.41 1.62, 19.41 4.85 C19.41 8.24, 19.41 11.63, 19.41 14.56 C19.41 17.79, 17.79 19.41, 14.56 19.41 C10.78 19.41, 7 19.41, 4.85 19.41 C1.62 19.41, 0 17.79, 0 14.56 C0 11.71, 0 8.87, 0 4.85 C0 1.62, 1.62 0, 4.85 0" stroke="none" stroke-width="0" fill="#a7f3d0"></path><path d="M4.85 0 C8.34 0, 11.84 0, 14.56 0 M4.85 0 C8.59 0, 12.33 0, 14.56 0 M14.56 0 C17.79 0, 19.41 1.62, 19.41 4.85 M14.56 0 C17.79 0, 19.41 1.62, 19.41 4.85 M19.41 4.85 C19.41 7.25, 19.41 9.65, 19.41 14.56 M19.41 4.85 C19.41 6.85, 19.41 8.84, 19.41 14.56 M19.41 14.56 C19.41 17.79, 17.79 19.41, 14.56 19.41 M19.41 14.56 C19.41 17.79, 17.79 19.41, 14.56 19.41 M14.56 19.41 C12.3 19.41, 10.03 19.41, 4.85 19.41 M14.56 19.41 C12 19.41, 9.44 19.41, 4.85 19.41 M4.85 19.41 C1.62 19.41, 0 17.79, 0 14.56 M4.85 19.41 C1.62 19.41, 0 17.79, 0 14.56 M0 14.56 C0 12.16, 0 9.75, 0 4.85 M0 14.56 C0 11.84, 0 9.13, 0 4.85 M0 4.85 C0 1.62, 1.62 0, 4.85 0 M0 4.85 C0 1.62, 1.62 0, 4.85 0" stroke="#047857" stroke-width="1" fill="none"></path></g><g transform="translate(57.73195876288659 729.7010309278351) rotate(0 76.26288659793815 10.399484536082468)"><text x="0" y="13.473290512242269" font-family="Cascadia, monospace, Segoe UI Emoji" font-size="13.8659793814433px" fill="#64748b" text-anchor="start" style="white-space: pre;" direction="ltr" dominant-baseline="alphabetic">Final output</text></g></svg>